<svg width="10" height="10" viewBox="0 0 10 10" fill="none" xmlns="http://www.w3.org/2000/svg">
<path d="M3.60942 7.96897C6.43892 7.96897 7.98696 5.6242 7.98696 3.59144C7.98696 3.52552 7.9855 3.45813 7.98257 3.39222C8.28371 3.17444 8.54359 2.90468 8.75 2.59563C8.46954 2.72042 8.17176 2.80191 7.86685 2.83733C8.1879 2.64489 8.42829 2.34256 8.54346 1.98641C8.24142 2.1654 7.91112 2.29167 7.5667 2.35979C7.33464 2.11322 7.02781 1.94995 6.69365 1.89524C6.3595 1.84054 6.01662 1.89743 5.71804 2.05713C5.41947 2.21684 5.18181 2.47045 5.04183 2.77876C4.90184 3.08708 4.86732 3.43292 4.9436 3.76282C4.33203 3.73213 3.73373 3.57326 3.18749 3.29651C2.64126 3.01976 2.15928 2.6313 1.7728 2.15633C1.57637 2.49499 1.51627 2.89574 1.6047 3.27713C1.69313 3.65852 1.92346 3.99193 2.24888 4.2096C2.00457 4.20184 1.76562 4.13607 1.55176 4.0177V4.03675C1.55154 4.39215 1.67441 4.73666 1.89947 5.01172C2.12454 5.28678 2.43791 5.4754 2.78633 5.54554C2.56002 5.60746 2.32249 5.61648 2.09214 5.5719C2.19045 5.87755 2.38174 6.14488 2.6393 6.33658C2.89687 6.52828 3.20785 6.63479 3.52886 6.64124C2.98388 7.06933 2.31068 7.30152 1.61768 7.30042C1.49478 7.30023 1.372 7.2927 1.25 7.27786C1.95402 7.72953 2.77298 7.96941 3.60942 7.96897Z" fill="white"/>
</svg>
