<svg width="32" height="32" viewBox="0 0 32 32" fill="none" xmlns="http://www.w3.org/2000/svg">
<path d="M22.364 3.97918L28.0208 9.63606L28.728 8.92893C29.8995 7.75737 29.8995 5.85787 28.728 4.68631L27.3138 3.27212C26.1422 2.10056 24.2427 2.10056 23.0711 3.27212L22.364 3.97918ZM27.6067 7.80768L24.1923 4.39331C23.9491 4.15006 24.0176 3.73793 24.3278 3.58931C25.0716 3.23287 25.9902 3.36281 26.6066 3.97918L28.0208 5.39337C28.6371 6.00974 28.7671 6.92831 28.4106 7.67212C28.2621 7.98237 27.8499 8.05087 27.6067 7.80768Z" fill="#463C4B"/>
<path d="M3.97917 22.3639L9.63604 28.0208L8.92892 28.7279C7.75735 29.8995 5.85785 29.8995 4.68629 28.7279L3.2721 27.3137C2.10054 26.1422 2.10054 24.2427 3.2721 23.0711L3.97917 22.3639ZM7.80767 27.6067L4.39329 24.1923C4.15004 23.9491 3.73792 24.0176 3.58929 24.3278C3.23285 25.0716 3.36279 25.9902 3.97917 26.6066L5.39335 28.0208C6.00973 28.6371 6.92829 28.7671 7.6721 28.4106C7.98235 28.2621 8.05085 27.8499 7.80767 27.6067Z" fill="#463C4B"/>
<path d="M16 30C23.732 30 30 23.732 30 16C30 8.26801 23.732 2 16 2C8.26801 2 2 8.26801 2 16C2 23.732 8.26801 30 16 30Z" fill="#555A6E"/>
<path d="M2.5 16.5C2.22387 16.5 2 16.2761 2 16C2 12.2604 3.45625 8.74475 6.1005 6.1005C8.74475 3.45625 12.2604 2 16 2C16.2761 2 16.5 2.22387 16.5 2.5C16.5 2.77613 16.2761 3 16 3C8.83181 3 3 8.83181 3 16C3 16.2761 2.77613 16.5 2.5 16.5Z" fill="#6E788C"/>
<path d="M16 28C22.6274 28 28 22.6274 28 16C28 9.37258 22.6274 4 16 4C9.37258 4 4 9.37258 4 16C4 22.6274 9.37258 28 16 28Z" fill="#463C4B"/>
<path d="M18.6667 21.8333C18.9428 21.8333 19.1667 21.6095 19.1667 21.3333C19.1667 21.0572 18.9428 20.8333 18.6667 20.8333C18.3905 20.8333 18.1667 21.0572 18.1667 21.3333C18.1667 21.6095 18.3905 21.8333 18.6667 21.8333Z" fill="#FFBE28"/>
<path d="M22.8333 17.3333C23.1095 17.3333 23.3333 17.1095 23.3333 16.8333C23.3333 16.5572 23.1095 16.3333 22.8333 16.3333C22.5572 16.3333 22.3333 16.5572 22.3333 16.8333C22.3333 17.1095 22.5572 17.3333 22.8333 17.3333Z" fill="#FFBE28"/>
<path d="M23.3333 22C23.6095 22 23.8333 21.7761 23.8333 21.5C23.8333 21.2239 23.6095 21 23.3333 21C23.0572 21 22.8333 21.2239 22.8333 21.5C22.8333 21.7761 23.0572 22 23.3333 22Z" fill="#FFBE28"/>
<path d="M27.1199 16.4855C27.3381 16.4318 27.5 16.2348 27.5 16C27.5 15.7652 27.3381 15.5682 27.1199 15.5145C27.3326 15.442 27.4767 15.2316 27.4562 14.9977C27.4358 14.7638 27.2573 14.5816 27.0352 14.5472C27.2409 14.4564 27.3661 14.2343 27.3253 14.0031C27.2846 13.7718 27.0909 13.6059 26.8666 13.5909C27.0636 13.4826 27.1689 13.2504 27.1082 13.0236C27.0474 12.7967 26.8401 12.6484 26.6153 12.653C26.8021 12.5279 26.8868 12.2874 26.8065 12.0667C26.7262 11.8461 26.5067 11.7164 26.2833 11.7406C26.4584 11.5996 26.5219 11.3527 26.4226 11.1399C26.3234 10.9271 26.0934 10.8169 25.8729 10.8605C26.0351 10.7049 26.0768 10.4533 25.9594 10.2499C25.8419 10.0466 25.6033 9.95694 25.3874 10.0196C25.5354 9.85038 25.5551 9.59619 25.4204 9.40381C25.2857 9.21144 25.0401 9.14294 24.8305 9.22412C24.9632 9.04269 24.9606 8.78775 24.8096 8.60787C24.6587 8.428 24.4081 8.38119 24.2064 8.48031C24.3228 8.288 24.2979 8.03425 24.1319 7.86819C23.9658 7.70212 23.7121 7.67731 23.5198 7.79369C23.6189 7.592 23.5721 7.34137 23.3922 7.19044C23.2123 7.0395 22.9573 7.03687 22.7759 7.16956C22.8571 6.96 22.7886 6.71438 22.5963 6.57969C22.4039 6.445 22.1497 6.46463 21.9805 6.61263C22.0431 6.39675 21.9535 6.15806 21.7501 6.04069C21.5468 5.92325 21.2952 5.965 21.1396 6.12712C21.1832 5.90662 21.0731 5.67662 20.8603 5.57744C20.6474 5.47819 20.4005 5.54169 20.2596 5.71681C20.2838 5.49338 20.154 5.27387 19.9334 5.19356C19.7127 5.11325 19.4722 5.198 19.3471 5.38475C19.3517 5.16006 19.2034 4.95269 18.9766 4.89187C18.7498 4.83112 18.5176 4.9365 18.4092 5.13344C18.3942 4.90919 18.2283 4.7155 17.9971 4.67475C17.7658 4.634 17.5437 4.75919 17.4529 4.96481C17.4184 4.74275 17.2363 4.56425 17.0024 4.54381C16.7685 4.52331 16.5582 4.66744 16.4856 4.88019C16.4318 4.66188 16.2348 4.5 16 4.5C15.7652 4.5 15.5682 4.66188 15.5145 4.88013C15.442 4.66738 15.2316 4.52325 14.9977 4.54375C14.7638 4.56419 14.5816 4.74269 14.5472 4.96475C14.4564 4.75912 14.2343 4.63394 14.0031 4.67469C13.7718 4.71544 13.6059 4.90906 13.5909 5.13338C13.4826 4.93644 13.2504 4.83106 13.0236 4.89181C12.7968 4.95262 12.6484 5.15994 12.653 5.38469C12.5279 5.19794 12.2874 5.11319 12.0667 5.1935C11.8461 5.27381 11.7164 5.49331 11.7406 5.71675C11.5996 5.54163 11.3527 5.47812 11.1399 5.57737C10.9271 5.67662 10.8169 5.90662 10.8605 6.12706C10.7049 5.96494 10.4533 5.92319 10.25 6.04063C10.0466 6.158 9.957 6.39675 10.0196 6.61256C9.85044 6.46456 9.59625 6.44494 9.40388 6.57963C9.2115 6.71431 9.143 6.95994 9.22419 7.1695C9.04275 7.03681 8.78781 7.03944 8.60794 7.19037C8.42806 7.34131 8.38125 7.59194 8.48038 7.79362C8.28806 7.67725 8.03431 7.70206 7.86825 7.86812C7.70219 8.03419 7.67737 8.28794 7.79375 8.48025C7.59206 8.38113 7.34144 8.42794 7.1905 8.60781C7.03956 8.78769 7.03694 9.04269 7.16962 9.22406C6.96006 9.14288 6.71444 9.21138 6.57975 9.40375C6.44506 9.59613 6.46469 9.85031 6.61269 10.0195C6.39681 9.95687 6.15813 10.0465 6.04075 10.2499C5.92331 10.4532 5.96506 10.7048 6.12719 10.8604C5.90669 10.8169 5.67669 10.9269 5.5775 11.1398C5.47825 11.3526 5.54175 11.5996 5.71688 11.7405C5.49344 11.7163 5.27394 11.846 5.19362 12.0667C5.11331 12.2874 5.19806 12.5278 5.38481 12.6529C5.16012 12.6483 4.95275 12.7967 4.89194 13.0235C4.83113 13.2503 4.93656 13.4825 5.1335 13.5909C4.90925 13.6059 4.71562 13.7718 4.67481 14.003C4.63406 14.2343 4.75925 14.4563 4.96488 14.5471C4.74275 14.5816 4.56431 14.7638 4.54388 14.9976C4.52344 15.2316 4.6675 15.4419 4.88025 15.5144C4.66187 15.5682 4.5 15.7652 4.5 16C4.5 16.2348 4.66188 16.4318 4.88013 16.4855C4.66738 16.558 4.52331 16.7684 4.54375 17.0023C4.56419 17.2362 4.74262 17.4184 4.96475 17.4528C4.75912 17.5436 4.63394 17.7657 4.67469 17.9969C4.71544 18.2282 4.90913 18.3941 5.13338 18.4091C4.93644 18.5174 4.83106 18.7496 4.89187 18.9764C4.95262 19.2032 5.16 19.3516 5.38475 19.3469C5.19806 19.4721 5.11325 19.7125 5.19356 19.9332C5.27387 20.1539 5.49338 20.2836 5.71681 20.2594C5.54169 20.4003 5.47825 20.6472 5.5775 20.8601C5.67675 21.0729 5.90669 21.183 6.12719 21.1394C5.965 21.2951 5.92331 21.5466 6.04075 21.75C6.15819 21.9534 6.39688 22.043 6.61269 21.9804C6.46469 22.1496 6.44506 22.4037 6.57975 22.5961C6.71444 22.7885 6.96006 22.857 7.16962 22.7758C7.03694 22.9573 7.03956 23.2122 7.1905 23.3921C7.34144 23.5719 7.59206 23.6187 7.79375 23.5196C7.67737 23.7119 7.70219 23.9657 7.86825 24.1318C8.03431 24.2978 8.28806 24.3226 8.48038 24.2062C8.38125 24.4079 8.42806 24.6586 8.60794 24.8096C8.78781 24.9605 9.04281 24.9631 9.22419 24.8304C9.143 25.04 9.2115 25.2856 9.40388 25.4203C9.59625 25.555 9.85044 25.5354 10.0196 25.3874C9.957 25.6033 10.0466 25.8419 10.25 25.9593C10.4534 26.0767 10.7049 26.035 10.8605 25.8729C10.8169 26.0934 10.9271 26.3234 11.1399 26.4226C11.3527 26.5218 11.5996 26.4583 11.7406 26.2832C11.7164 26.5066 11.8461 26.7261 12.0667 26.8064C12.2874 26.8868 12.5279 26.802 12.653 26.6152C12.6484 26.8399 12.7968 27.0473 13.0236 27.1081C13.2504 27.1689 13.4826 27.0635 13.5909 26.8666C13.6059 27.0908 13.7718 27.2845 14.0031 27.3253C14.2343 27.366 14.4564 27.2408 14.5472 27.0352C14.5817 27.2573 14.7638 27.4358 14.9977 27.4562C15.2316 27.4766 15.4419 27.3326 15.5145 27.1198C15.5682 27.3381 15.7652 27.5 16 27.5C16.2348 27.5 16.4318 27.3381 16.4855 27.1199C16.558 27.3326 16.7684 27.4767 17.0023 27.4562C17.2362 27.4358 17.4184 27.2573 17.4528 27.0352C17.5436 27.2409 17.7657 27.3661 17.9969 27.3253C18.2282 27.2846 18.3941 27.0909 18.4091 26.8666C18.5174 27.0636 18.7496 27.1689 18.9764 27.1082C19.2032 27.0474 19.3516 26.8401 19.347 26.6153C19.4721 26.8021 19.7126 26.8868 19.9333 26.8065C20.1539 26.7262 20.2836 26.5067 20.2594 26.2833C20.4004 26.4584 20.6473 26.5219 20.8601 26.4226C21.0729 26.3234 21.1831 26.0934 21.1395 25.8729C21.2951 26.0351 21.5467 26.0768 21.75 25.9594C21.9534 25.842 22.043 25.6033 21.9804 25.3874C22.1496 25.5354 22.4037 25.5551 22.5961 25.4204C22.7885 25.2857 22.857 25.0401 22.7758 24.8305C22.9573 24.9632 23.2122 24.9606 23.3921 24.8096C23.5719 24.6587 23.6187 24.4081 23.5196 24.2063C23.7119 24.3227 23.9657 24.2979 24.1318 24.1318C24.2978 23.9657 24.3226 23.712 24.2062 23.5197C24.4079 23.6188 24.6586 23.572 24.8095 23.3921C24.9604 23.2122 24.9631 22.9573 24.8304 22.7759C25.0399 22.8571 25.2856 22.7886 25.4202 22.5962C25.5549 22.4038 25.5353 22.1496 25.3873 21.9804C25.6032 22.0431 25.8419 21.9534 25.9592 21.7501C26.0767 21.5467 26.0349 21.2952 25.8728 21.1395C26.0933 21.1831 26.3233 21.073 26.4225 20.8601C26.5218 20.6473 26.4583 20.4004 26.2832 20.2594C26.5066 20.2836 26.7261 20.1539 26.8064 19.9333C26.8868 19.7126 26.802 19.4721 26.6152 19.347C26.8399 19.3516 27.0473 19.2032 27.1081 18.9764C27.1689 18.7496 27.0635 18.5174 26.8666 18.4091C27.0909 18.3941 27.2845 18.2282 27.3253 17.997C27.3661 17.7657 27.2409 17.5436 27.0352 17.4529C27.2574 17.4184 27.4358 17.2362 27.4562 17.0024C27.4767 16.7684 27.3326 16.558 27.1199 16.4855Z" fill="#FAA019"/>
<path d="M14.08 5.16731C9.5438 5.96581 5.9658 9.54381 5.1673 14.0801C5.89286 17.4634 8.89992 20 12.5 20C16.6421 20 20 16.6421 20 12.5C20 8.89994 17.4634 5.89288 14.08 5.16731Z" fill="#FFBE28"/>
<path d="M16.5 12C16.7761 12 17 11.7761 17 11.5C17 11.2239 16.7761 11 16.5 11C16.2239 11 16 11.2239 16 11.5C16 11.7761 16.2239 12 16.5 12Z" fill="#FAA019"/>
<path d="M11.8333 11.6667C12.1095 11.6667 12.3333 11.4428 12.3333 11.1667C12.3333 10.8905 12.1095 10.6667 11.8333 10.6667C11.5572 10.6667 11.3333 10.8905 11.3333 11.1667C11.3333 11.4428 11.5572 11.6667 11.8333 11.6667Z" fill="#FAA019"/>
<path d="M10 15.6667C10.2761 15.6667 10.5 15.4428 10.5 15.1667C10.5 14.8905 10.2761 14.6667 10 14.6667C9.72386 14.6667 9.5 14.8905 9.5 15.1667C9.5 15.4428 9.72386 15.6667 10 15.6667Z" fill="#FAA019"/>
<path d="M7.33331 18.5C7.60946 18.5 7.83331 18.2761 7.83331 18C7.83331 17.7239 7.60946 17.5 7.33331 17.5C7.05717 17.5 6.83331 17.7239 6.83331 18C6.83331 18.2761 7.05717 18.5 7.33331 18.5Z" fill="#FAA019"/>
<path d="M16.1667 19.5C16.4428 19.5 16.6667 19.2761 16.6667 19C16.6667 18.7239 16.4428 18.5 16.1667 18.5C15.8905 18.5 15.6667 18.7239 15.6667 19C15.6667 19.2761 15.8905 19.5 16.1667 19.5Z" fill="#FAA019"/>
<path d="M15.3333 13.6667C15.6095 13.6667 15.8333 13.4428 15.8333 13.1667C15.8333 12.8905 15.6095 12.6667 15.3333 12.6667C15.0572 12.6667 14.8333 12.8905 14.8333 13.1667C14.8333 13.4428 15.0572 13.6667 15.3333 13.6667Z" fill="#FAA019"/>
<path d="M21.6667 22.8333C21.9428 22.8333 22.1667 22.6095 22.1667 22.3333C22.1667 22.0572 21.9428 21.8333 21.6667 21.8333C21.3905 21.8333 21.1667 22.0572 21.1667 22.3333C21.1667 22.6095 21.3905 22.8333 21.6667 22.8333Z" fill="#F04B37"/>
<path d="M8.66669 10.6667C8.94283 10.6667 9.16669 10.4428 9.16669 10.1667C9.16669 9.89054 8.94283 9.66669 8.66669 9.66669C8.39054 9.66669 8.16669 9.89054 8.16669 10.1667C8.16669 10.4428 8.39054 10.6667 8.66669 10.6667Z" fill="#F04B37"/>
<path d="M18.1667 18C18.4428 18 18.6667 17.7761 18.6667 17.5C18.6667 17.2239 18.4428 17 18.1667 17C17.8905 17 17.6667 17.2239 17.6667 17.5C17.6667 17.7761 17.8905 18 18.1667 18Z" fill="#F04B37"/>
<path d="M25.1667 12.8333C25.4428 12.8333 25.6667 12.6095 25.6667 12.3333C25.6667 12.0572 25.4428 11.8333 25.1667 11.8333C24.8905 11.8333 24.6667 12.0572 24.6667 12.3333C24.6667 12.6095 24.8905 12.8333 25.1667 12.8333Z" fill="#F04B37"/>
<path d="M13.5 15.1667C13.7761 15.1667 14 14.9428 14 14.6667C14 14.3905 13.7761 14.1667 13.5 14.1667C13.2239 14.1667 13 14.3905 13 14.6667C13 14.9428 13.2239 15.1667 13.5 15.1667Z" fill="#5FAA46"/>
<path d="M7.83331 13C8.10946 13 8.33331 12.7761 8.33331 12.5C8.33331 12.2239 8.10946 12 7.83331 12C7.55717 12 7.33331 12.2239 7.33331 12.5C7.33331 12.7761 7.55717 13 7.83331 13Z" fill="#5FAA46"/>
<path d="M13.5 20C13.7761 20 14 19.7761 14 19.5C14 19.2239 13.7761 19 13.5 19C13.2239 19 13 19.2239 13 19.5C13 19.7761 13.2239 20 13.5 20Z" fill="#5FAA46"/>
<path d="M24.3333 20C24.6095 20 24.8333 19.7761 24.8333 19.5C24.8333 19.2239 24.6095 19 24.3333 19C24.0572 19 23.8333 19.2239 23.8333 19.5C23.8333 19.7761 24.0572 20 24.3333 20Z" fill="#5FAA46"/>
<path d="M15.6667 26.6667C15.9428 26.6667 16.1667 26.4428 16.1667 26.1667C16.1667 25.8905 15.9428 25.6667 15.6667 25.6667C15.3905 25.6667 15.1667 25.8905 15.1667 26.1667C15.1667 26.4428 15.3905 26.6667 15.6667 26.6667Z" fill="#5FAA46"/>
<path d="M16.5 6.33331C16.7761 6.33331 17 6.10946 17 5.83331C17 5.55717 16.7761 5.33331 16.5 5.33331C16.2239 5.33331 16 5.55717 16 5.83331C16 6.10946 16.2239 6.33331 16.5 6.33331Z" fill="#5FAA46"/>
<path d="M6.83331 20C7.10946 20 7.33331 19.7761 7.33331 19.5C7.33331 19.2239 7.10946 19 6.83331 19C6.55717 19 6.33331 19.2239 6.33331 19.5C6.33331 19.7761 6.55717 20 6.83331 20Z" fill="#F04B37"/>
<path d="M20 13.6667C20.2761 13.6667 20.5 13.4428 20.5 13.1667C20.5 12.8905 20.2761 12.6667 20 12.6667C19.7239 12.6667 19.5 12.8905 19.5 13.1667C19.5 13.4428 19.7239 13.6667 20 13.6667Z" fill="#FAA019"/>
<path d="M18.1667 8.33331C18.4428 8.33331 18.6667 8.10946 18.6667 7.83331C18.6667 7.55717 18.4428 7.33331 18.1667 7.33331C17.8905 7.33331 17.6667 7.55717 17.6667 7.83331C17.6667 8.10946 17.8905 8.33331 18.1667 8.33331Z" fill="#FAA019"/>
<path d="M19.5 10.8333C19.7761 10.8333 20 10.6095 20 10.3333C20 10.0572 19.7761 9.83331 19.5 9.83331C19.2239 9.83331 19 10.0572 19 10.3333C19 10.6095 19.2239 10.8333 19.5 10.8333Z" fill="#FAA019"/>
<path d="M12.25 8.75C12.186 8.75 12.1221 8.72556 12.0732 8.67681C11.9756 8.57912 11.9756 8.42087 12.0732 8.32325L12.1156 8.28088C12.458 7.93856 12.9131 7.75 13.3972 7.75H14.5C14.6381 7.75 14.75 7.86194 14.75 8C14.75 8.13806 14.6381 8.25 14.5 8.25H13.3972C13.0467 8.25 12.717 8.38656 12.4692 8.63444L12.4268 8.67681C12.378 8.72556 12.314 8.75 12.25 8.75Z" fill="#E1322D"/>
<path d="M13 9.5C12.936 9.5 12.8721 9.47556 12.8232 9.42681C12.7256 9.32912 12.7256 9.17087 12.8232 9.07325L12.8656 9.03088C13.208 8.68856 13.6631 8.5 14.1472 8.5H15.25C15.3881 8.5 15.5 8.61194 15.5 8.75C15.5 8.88806 15.3881 9 15.25 9H14.1472C13.7967 9 13.467 9.13656 13.2192 9.38444L13.1768 9.42681C13.128 9.47556 13.064 9.5 13 9.5Z" fill="#E1322D"/>
<path d="M19.5 7C21.9854 7 24 9.01463 24 11.5C24 13.9854 21.9854 16 19.5 16V15C20.6046 15 21.5 14.1046 21.5 13C21.5 11.8954 20.6046 11 19.5 11V7Z" fill="#E1322D"/>
<path d="M19.5 7H12.25C12.1119 7 12 7.11194 12 7.25C12 7.38806 12.1119 7.5 12.25 7.5H12.5494C13.0777 7.5 13.5509 7.83144 13.7264 8.32969C14.2745 9.88519 15.757 11 17.5 11H19.5C20.6046 11 21.5 10.1046 21.5 9C21.5 7.89544 20.6046 7 19.5 7Z" fill="#F04B37"/>
<path d="M18 14H18.5C19.0523 14 19.5 14.4477 19.5 15H18C17.7239 15 17.5 14.7761 17.5 14.5C17.5 14.2239 17.7239 14 18 14Z" fill="#E1322D"/>
<path d="M18 16H19.5V15H18C17.7239 15 17.5 15.2239 17.5 15.5C17.5 15.7761 17.7239 16 18 16Z" fill="#E1322D"/>
<path d="M19.25 7.5H12.25C12.1119 7.5 12 7.38806 12 7.25C12 7.11194 12.1119 7 12.25 7H19.25C19.3881 7 19.5 7.11194 19.5 7.25C19.5 7.38806 19.3881 7.5 19.25 7.5Z" fill="#F5826E"/>
<path d="M15.5 8C15.7761 8 16 7.77614 16 7.5C16 7.22386 15.7761 7 15.5 7C15.2239 7 15 7.22386 15 7.5C15 7.77614 15.2239 8 15.5 8Z" fill="#463C4B"/>
<path d="M18.6028 24.25H17.5C17.3619 24.25 17.25 24.1381 17.25 24C17.25 23.8619 17.3619 23.75 17.5 23.75H18.6028C18.9534 23.75 19.283 23.6134 19.5309 23.3656L19.5732 23.3232C19.6709 23.2256 19.8292 23.2256 19.9268 23.3232C20.0244 23.4209 20.0244 23.5791 19.9268 23.6768L19.8844 23.7191C19.5421 24.0614 19.0869 24.25 18.6028 24.25Z" fill="#E1322D"/>
<path d="M17.8528 23.5H16.75C16.6119 23.5 16.5 23.3881 16.5 23.25C16.5 23.1119 16.6119 23 16.75 23H17.8528C18.2034 23 18.533 22.8634 18.7809 22.6156L18.8232 22.5732C18.9209 22.4756 19.0792 22.4756 19.1768 22.5732C19.2744 22.6709 19.2744 22.8291 19.1768 22.9268L19.1344 22.9691C18.7921 23.3114 18.3369 23.5 17.8528 23.5Z" fill="#E1322D"/>
<path d="M12.5 25C10.0146 25 8 22.9854 8 20.5C8 18.0146 10.0146 16 12.5 16V17C11.3954 17 10.5 17.8954 10.5 19C10.5 20.1046 11.3954 21 12.5 21V25Z" fill="#E1322D"/>
<path d="M12.5 25H19.75C19.8881 25 20 24.8881 20 24.75C20 24.6119 19.8881 24.5 19.75 24.5H19.4506C18.9223 24.5 18.4491 24.1686 18.2736 23.6703C17.7255 22.1148 16.243 21 14.5 21H12.5C11.3954 21 10.5 21.8954 10.5 23C10.5 24.1046 11.3954 25 12.5 25Z" fill="#F04B37"/>
<path d="M14 18H13.5C12.9477 18 12.5 17.5523 12.5 17H14C14.2761 17 14.5 17.2239 14.5 17.5C14.5 17.7761 14.2761 18 14 18Z" fill="#E1322D"/>
<path d="M14 16H12.5V17H14C14.2761 17 14.5 16.7761 14.5 16.5C14.5 16.2239 14.2761 16 14 16Z" fill="#E1322D"/>
<path d="M12.75 24.5H19.75C19.8881 24.5 20 24.6119 20 24.75C20 24.8881 19.8881 25 19.75 25H12.75C12.6119 25 12.5 24.8881 12.5 24.75C12.5 24.6119 12.6119 24.5 12.75 24.5Z" fill="#F5826E"/>
<path d="M16.5 25C16.7761 25 17 24.7761 17 24.5C17 24.2239 16.7761 24 16.5 24C16.2239 24 16 24.2239 16 24.5C16 24.7761 16.2239 25 16.5 25Z" fill="#463C4B"/>
<path d="M21 17.5C19.8954 17.5 19 18.3954 19 19.5C19 19.7761 19.2239 20 19.5 20H22.5C22.7761 20 23 19.7761 23 19.5C23 18.3954 22.1046 17.5 21 17.5Z" fill="#463C4B"/>
<path d="M21 17.5C19.8954 17.5 19 18.3954 19 19.5H20C20.5523 19.5 21 19.0523 21 18.5V17.5Z" fill="#555A6E"/>
<path d="M26.5 16C26.5 14.8954 25.6046 14 24.5 14C24.2239 14 24 14.2239 24 14.5V17.5C24 17.7761 24.2239 18 24.5 18C25.6046 18 26.5 17.1046 26.5 16Z" fill="#463C4B"/>
<path d="M26.5 16C26.5 14.8954 25.6046 14 24.5 14V15C24.5 15.5523 24.9477 16 25.5 16H26.5Z" fill="#555A6E"/>
<path d="M5.5 16C5.5 14.8954 6.39544 14 7.5 14C7.77612 14 8 14.2239 8 14.5V17.5C8 17.7761 7.77612 18 7.5 18C6.39544 18 5.5 17.1046 5.5 16Z" fill="#463C4B"/>
<path d="M5.5 16C5.5 14.8954 6.39544 14 7.5 14V15C7.5 15.5523 7.05231 16 6.5 16H5.5Z" fill="#555A6E"/>
<path d="M11 14C9.89544 14 9 13.1046 9 12C9 11.7239 9.22387 11.5 9.5 11.5H12.5C12.7761 11.5 13 11.7239 13 12C13 13.1046 12.1046 14 11 14Z" fill="#463C4B"/>
<path d="M11 14C9.89544 14 9 13.1046 9 12H10C10.5523 12 11 12.4477 11 13V14Z" fill="#555A6E"/>
</svg>
