<svg width="10" height="10" viewBox="0 0 10 10" fill="none" xmlns="http://www.w3.org/2000/svg">
<path fill-rule="evenodd" clip-rule="evenodd" d="M8.75 5C8.75 7.07107 7.07107 8.75 5 8.75C2.92893 8.75 1.25 7.07107 1.25 5C1.25 2.92893 2.92893 1.25 5 1.25C7.07107 1.25 8.75 2.92893 8.75 5ZM5.33598 3.92702L2.81069 4.96749C2.36633 5.1409 2.62644 5.30347 2.62644 5.30347C2.62644 5.30347 3.00578 5.43353 3.33092 5.53107C3.65607 5.62861 3.82948 5.52023 3.82948 5.52023L5.35766 4.49061C5.89957 4.12211 5.76951 4.42558 5.63945 4.55564C5.35766 4.83743 4.89162 5.28179 4.50145 5.63945C4.32803 5.79119 4.41474 5.92124 4.49061 5.98627C4.71116 6.17289 5.23048 6.51222 5.46657 6.66648C5.53212 6.70931 5.57584 6.73788 5.58526 6.74494C5.63945 6.7883 5.94292 6.98338 6.12717 6.94003C6.31142 6.89668 6.33309 6.6474 6.33309 6.6474L6.60405 4.94581C6.62813 4.78628 6.65221 4.6301 6.67466 4.48446C6.73306 4.10567 6.78047 3.79818 6.78829 3.68858C6.82081 3.32009 6.43064 3.47182 6.43064 3.47182C6.43064 3.47182 5.58526 3.81864 5.33598 3.92702Z" fill="white"/>
</svg>
